<?xml version="1.0" encoding="UTF-8"?>
<svg width="302px" height="166px" viewBox="0 0 302 166" version="1.1" xmlns="http://www.w3.org/2000/svg" xmlns:xlink="http://www.w3.org/1999/xlink">
    <!-- Generator: Sketch 43.2 (39069) - http://www.bohemiancoding.com/sketch -->
    <title>Artboard</title>
    <desc>Created with Sketch.</desc>
    <defs>
        <polygon id="path-1" points="1.84834124 68.8744077 240.478673 68.8744077 240.478673 1.12085308 1.84834123 1.12085308 1.84834123 68.8744077"></polygon>
        <polygon id="path-3" points="1.84834124 135.225119 673.274883 135.225119 673.274883 0.0047393365 1.84834123 0.0047393365 1.84834123 135.225119"></polygon>
    </defs>
    <g id="Page-1" stroke="none" stroke-width="1" fill="none" fill-rule="evenodd">
        <g id="Artboard">
            <g id="GESIS-Logo" transform="translate(-378.000000, -6.000000)">
                <g id="g10" transform="translate(340.767500, 110.147870) scale(-1, 1) rotate(-180.000000) translate(-340.767500, -110.147870) translate(0.142500, 0.147870)">
                    <g id="g12" transform="translate(372.255603, 148.029384)">
                        <g id="g14-Clipped">
                            <mask id="mask-2" fill="white">
                                <use xlink:href="#path-1"></use>
                            </mask>
                            <g id="path18"></g>
                        </g>
                    </g>
                    <g id="g48" transform="translate(455.229544, 127.247396)" fill="#426889">
                        <path d="M59.2417063,11.8483412 C54.5616115,10.6800948 51.8838863,9.50947869 44.6966825,9.50947869 C20.1137441,9.50947869 14.0971564,35.0900474 14.0971564,52.6469195 L60.7488153,52.6469195 C60.7488153,59.1706162 60.7488153,84.751185 32.4905214,84.751185 C9.24407584,84.751185 0.215639811,68.1990522 0.215639811,45.457346 C0.215639811,16.1919432 15.7701422,1.48104266 39.5142181,1.48104266 C48.5402844,1.48104266 52.7180096,2.81516588 59.2417063,4.65402844 L59.2417063,11.8483412 Z M14.4312796,60.0047394 C14.4312796,64.3554503 17.4407583,78.0663508 31.6516588,78.0663508 C45.864929,78.0663508 47.872038,66.8601897 47.872038,60.0047394 L14.4312796,60.0047394 Z" id="path50"></path>
                    </g>
                    <g id="g52" transform="translate(526.430960, 128.588630)" fill-rule="nonzero" fill="#426889">
                        <path d="M47.393365,80.5687205 C44.2132702,81.2369669 37.1872038,83.4075831 28.8317536,83.4075831 C10.7748815,83.4075831 1.57582939,75.386256 1.57582939,61.6753555 C1.57582939,48.1303318 13.1113744,43.9526067 23.1492891,38.0947868 C32.5094787,32.5781991 40.2014219,29.4028436 40.2014219,21.3744076 C40.2014219,12.3459716 32.6800948,8.50000001 23.4810427,8.50000001 C13.1113744,8.50000001 2.91469195,15.021327 1.24170616,16.0236967 L1.24170616,3.48341233 C5.08767773,1.97867299 11.9454976,0.139810427 22.8151659,0.139810427 C43.7132702,0.139810427 52.5758295,11.3459716 52.5758295,23.7203792 C52.5758295,34.9194313 46.5521328,40.436019 38.8672986,44.9526067 C24.985782,53.315166 13.450237,55.9905214 13.450237,65.5189574 C13.450237,72.0450238 19.9691943,75.0521328 27.1611375,75.0521328 C36.5189574,75.0521328 44.7156399,70.2014219 47.393365,68.6966826" id="path54"></path>
                    </g>
                    <polygon id="path56" fill="#426889" fill-rule="nonzero" points="596.608688 130.5673 608.97835 130.5673 608.97835 210.159713 596.608688 210.159713"></polygon>
                    <g id="g58" transform="translate(626.281673, 128.588630)" fill-rule="nonzero" fill="#426889">
                        <path d="M47.393365,80.5687205 C44.2132702,81.2369669 37.1919432,83.4075831 28.8341233,83.4075831 C10.7748815,83.4075831 1.57582939,75.386256 1.57582939,61.6753555 C1.57582939,48.1303318 13.1137441,43.9526067 23.1469195,38.0947868 C32.5142181,32.5781991 40.2014219,29.4028436 40.2014219,21.3744076 C40.2014219,12.3459716 32.6753555,8.50000001 23.4810427,8.50000001 C13.1137441,8.50000001 2.91469195,15.021327 1.24407583,16.0236967 L1.24407583,3.48341233 C5.08767773,1.97867299 11.943128,0.139810427 22.8127962,0.139810427 C43.7132702,0.139810427 52.5758295,11.3459716 52.5758295,23.7203792 C52.5758295,34.9194313 46.5568721,40.436019 38.8672986,44.9526067 C24.985782,53.315166 13.4478673,55.9905214 13.4478673,65.5189574 C13.4478673,72.0450238 19.9691943,75.0521328 27.1587678,75.0521328 C36.5213271,75.0521328 44.7180095,70.2014219 47.393365,68.6966826" id="path60"></path>
                    </g>
                    <g id="g62" transform="translate(377.767453, 93.318485)" fill="#426889">
                        <path d="M14.2180095,78.1990522 C14.2180095,92.0758295 18.2322275,111.552133 31.443128,111.552133 C45.4881517,111.552133 50.836493,92.4099527 50.836493,78.1990522 C50.836493,63.3175356 45.1540285,44.6753555 31.6090048,44.6753555 C18.3981043,44.6753555 14.2180095,64.4881518 14.2180095,78.1990522 M49.2156399,45.6635072 C45.5331754,41.5710901 40.0094787,37.3957347 32.8483413,37.3957347 C12.6137441,37.3957347 1.0900474,56.6303318 1.0900474,78.864929 C1.0900474,101.104266 13.1161138,118.829384 32.3483413,118.829384 C40.7725119,118.829384 45.9241707,115.236967 49.2014219,111.151659 L49.2014219,116.954976 L61.5781991,116.954976 L61.5781991,36.8601896 C61.5781991,12.6184834 49.2014219,1.58056872 24.957346,1.58056872 C16.42891,1.58056872 9.40284362,2.91706162 4.22511849,4.5900474 L4.22511849,18.3009479 C11.0781991,14.457346 18.0995261,10.7748815 27.4668247,10.7748815 C49.2014219,10.7748815 49.2014219,31.8459716 49.2014219,37.6990522" id="path64"></path>
                    </g>
                    <g id="g66" transform="translate(493.309563, 79.104661)" fill-rule="nonzero" fill="#231F20">
                        <polyline id="path68" points="0 21.3270142 3.26777252 21.3270142 3.26777252 2.96208531 10.8459716 2.96208531 10.8459716 0.822274883 0 0.822274883"></polyline>
                    </g>
                    <g id="g70" transform="translate(504.096290, 78.123621)" fill-rule="nonzero" fill="#231F20">
                        <path d="M9.478673,11.8483413 C9.478673,12.9478673 9.09241708,15.028436 6.86255925,15.028436 C4.5450237,15.028436 4.09952607,12.6492891 4.04028437,11.8483413 L9.478673,11.8483413 Z M12.1516588,2.27962086 C10.9052133,1.77251185 9.80568722,1.47630332 8.02132703,1.47630332 C4.09952607,1.47630332 0.950236968,3.79383887 0.950236968,9.50000001 C0.950236968,13.421801 2.52369669,16.2748815 6.98104266,16.2748815 C11.5592417,16.2748815 12.4194313,13.2156398 12.4194313,10.4810427 L3.95023697,10.4810427 C3.95023697,7.6872038 5.19905214,3.05213271 9.44786731,3.05213271 C10.3696683,3.05213271 11.2606635,3.22985782 12.1516588,3.64454977 L12.1516588,2.27962086 Z" id="path72"></path>
                    </g>
                    <path d="M519.72425,94.0714875 L522.726625,94.0714875 L522.726625,79.9269375 L519.72425,79.9269375 L519.72425,94.0714875 Z M519.60575,100.431675 L522.845088,100.431675 L522.845088,97.4601125 L519.60575,97.4601125 L519.60575,100.431675 Z" id="path74" fill="#231F20" fill-rule="nonzero"></path>
                    <g id="g76" transform="translate(525.662645, 78.479069)" fill-rule="nonzero" fill="#231F20">
                        <path d="M7.10900475,2.36966825 C9.54502371,2.36966825 10.1398104,5.57819906 10.1398104,8.46208532 C10.1398104,10.957346 9.57345973,14.1966825 7.10900475,14.1966825 C4.76066351,14.1966825 4.19668247,11.1350711 4.19668247,8.46208532 C4.19668247,4.86492892 4.6421801,2.39810427 7.10900475,2.36966825 M4.07819906,13.6327014 L4.13744076,13.6327014 C4.76066351,14.5236967 5.71090048,15.9194313 8.08767774,15.9194313 C11.8933649,15.9194313 13.407583,12.7109005 13.407583,8.46208532 C13.407583,3.22985782 10.8530806,1.12085308 7.10900475,1.12085308 C1.58056872,1.12085308 1.07582939,4.80568721 1.07582939,8.46208532 L1.07582939,21.9526067 L4.07819906,21.9526067" id="path78"></path>
                    </g>
                    <g id="g80" transform="translate(542.191075, 79.853478)" fill-rule="nonzero" fill="#231F20">
                        <path d="M0,14.2180095 L3,14.2180095 L3,10.8601896 L3.05924171,10.8601896 C3.53554503,11.900474 4.90284361,14.5450237 8.02369669,14.5450237 C10.5189574,14.5450237 11.5876777,12.4668247 11.5876777,10.414692 L11.5876777,0.0734597157 L8.58767774,0.0734597157 L8.58767774,8.92890997 C8.58767774,10.7132702 8.31990523,12.3175356 6.80331755,12.3175356 C3.83175356,12.3175356 3,7.68246447 3,5.92654029 L3,0.0734597157 L1.0523441e-15,0.0734597157" id="path82"></path>
                    </g>
                    <path d="M558.058375,94.0714875 L561.06075,94.0714875 L561.06075,79.9269375 L558.058375,79.9269375 L558.058375,94.0714875 Z M557.939875,100.431675 L561.179213,100.431675 L561.179213,97.4601125 L557.939875,97.4601125 L557.939875,100.431675 Z" id="path84" fill="#231F20" fill-rule="nonzero"></path>
                    <g id="g86" transform="translate(563.762163, 79.519357)" fill-rule="nonzero" fill="#231F20">
                        <polyline id="path88" points="0 2.36966825 7.01421802 12.7701422 0.445497631 12.7701422 0.445497631 14.5521327 10.1658768 14.5521327 10.1658768 12.7701422 3.15165877 2.36966825 10.3720379 2.36966825 10.3720379 0.407582939 2.1046882e-15 0.407582939"></polyline>
                    </g>
                    <polygon id="path90" fill="#231F20" fill-rule="nonzero" points="575.975437 85.7358 586.16975 85.7358 586.16975 88.4396 575.975437 88.4396"></polygon>
                    <polygon id="path92" fill="#231F20" fill-rule="nonzero" points="589.911463 79.9269375 593.1816 79.9269375 593.1816 100.431675 589.911463 100.431675"></polygon>
                    <g id="g94" transform="translate(597.608137, 79.853478)" fill-rule="nonzero" fill="#231F20">
                        <path d="M0,14.2180095 L3.00236967,14.2180095 L3.00236967,10.8601896 L3.06161138,10.8601896 C3.53554503,11.900474 4.90521328,14.5450237 8.02369669,14.5450237 C10.521327,14.5450237 11.5900474,12.4668247 11.5900474,10.414692 L11.5900474,0.0734597157 L8.58767774,0.0734597157 L8.58767774,8.92890997 C8.58767774,10.7132702 8.32227489,12.3175356 6.80568721,12.3175356 C3.83412323,12.3175356 3.00236967,7.68246447 3.00236967,5.92654029 L3.00236967,0.0734597157 L0,0.0734597157" id="path96"></path>
                    </g>
                    <g id="g98" transform="translate(610.956477, 79.431684)" fill-rule="nonzero" fill="#231F20">
                        <path d="M9.478673,11.8483413 C8.46919433,12.5308057 7.34123224,13.2440758 5.91469195,13.2440758 C4.96208532,13.2440758 3.89336493,12.8270142 3.89336493,11.7582939 C3.89336493,9.20142181 10.3720379,8.96445499 10.3720379,4.44786731 C10.3720379,1.41706161 7.99289101,0.168246446 4.992891,0.168246446 C3.18009479,0.168246446 1.93127962,0.554502371 1.21800948,0.791469195 L1.21800948,3.55687204 C2.08056872,2.96208531 3.47630332,2.07109005 5.1421801,2.07109005 C6.86492892,2.07109005 7.57819906,2.96208531 7.57819906,3.85308057 C7.57819906,6.35071091 1.18957346,6.85545025 1.18957346,10.8957346 C1.18957346,13.035545 2.61611375,14.9668247 6.15165878,14.9668247 C7.66824646,14.9668247 8.97393366,14.5521327 9.478673,14.4028436" id="path100"></path>
                    </g>
                    <g id="g102" transform="translate(622.487290, 77.438794)" fill-rule="nonzero" fill="#231F20">
                        <path d="M9.478673,2.36966825 C8.88388627,2.22037915 8.0829384,2.16113744 7.39810428,2.16113744 C4.57582939,2.16113744 2.9407583,3.02369669 2.9407583,5.75829385 L2.9407583,15.0876777 L0.682464456,15.0876777 L0.682464456,16.6327014 L2.9407583,16.6327014 L2.9407583,19.9620853 L5.94312797,21.7748815 L5.94312797,16.6327014 L9.80568722,16.6327014 L9.80568722,15.0876777 L5.94312797,15.0876777 L5.94312797,6.94549764 C5.94312797,4.86492892 6.14928911,3.85545024 8.0829384,3.85545024 C8.55687205,3.85545024 9.06398106,3.91469195 9.478673,4.09241707" id="path104"></path>
                    </g>
                    <path d="M634.847475,94.0714875 L637.84985,94.0714875 L637.84985,79.9269375 L634.847475,79.9269375 L634.847475,94.0714875 Z M634.728975,100.431675 L637.968313,100.431675 L637.968313,97.4601125 L634.728975,97.4601125 L634.728975,100.431675 Z" id="path106" fill="#231F20" fill-rule="nonzero"></path>
                    <g id="g108" transform="translate(640.108140, 77.438794)" fill-rule="nonzero" fill="#231F20">
                        <path d="M9.478673,2.36966825 C8.88388627,2.22037915 8.0829384,2.16113744 7.39810428,2.16113744 C4.57582939,2.16113744 2.9407583,3.02369669 2.9407583,5.75829385 L2.9407583,15.0876777 L0.682464456,15.0876777 L0.682464456,16.6327014 L2.9407583,16.6327014 L2.9407583,19.9620853 L5.94312797,21.7748815 L5.94312797,16.6327014 L9.80568722,16.6327014 L9.80568722,15.0876777 L5.94312797,15.0876777 L5.94312797,6.94549764 C5.94312797,4.86492892 6.15165878,3.85545024 8.0829384,3.85545024 C8.55924172,3.85545024 9.06398106,3.91469195 9.478673,4.09241707" id="path110"></path>
                    </g>
                    <g id="g112" transform="translate(651.401977, 78.545426)" fill-rule="nonzero" fill="#231F20">
                        <path d="M9.478673,4.7393365 L9.41706163,4.7393365 C8.94312798,3.69905214 7.60663508,1.05450237 4.485782,1.05450237 C1.98815166,1.05450237 0.919431281,3.13507109 0.919431281,5.18483413 L0.919431281,15.5260664 L3.92180095,15.5260664 L3.92180095,6.67061612 C3.92180095,4.8886256 4.1872038,3.28436019 5.70379148,3.28436019 C8.67535546,3.28436019 9.50710902,7.91943129 9.50710902,9.6729858 L9.50710902,15.5260664 L12.5094787,15.5260664 L12.5094787,1.38151659 L9.478673,1.38151659" id="path114"></path>
                    </g>
                    <g id="g116" transform="translate(665.989652, 77.438794)" fill-rule="nonzero" fill="#231F20">
                        <path d="M9.478673,2.36966825 C8.88625594,2.22037915 8.0829384,2.16113744 7.40047394,2.16113744 C4.57582939,2.16113744 2.9407583,3.02369669 2.9407583,5.75829385 L2.9407583,15.0876777 L0.682464456,15.0876777 L0.682464456,16.6327014 L2.9407583,16.6327014 L2.9407583,19.9620853 L5.94312797,21.7748815 L5.94312797,16.6327014 L9.80568722,16.6327014 L9.80568722,15.0876777 L5.94312797,15.0876777 L5.94312797,6.94549764 C5.94312797,4.86492892 6.15165878,3.85545024 8.0829384,3.85545024 C8.55924172,3.85545024 9.06398106,3.91469195 9.478673,4.09241707" id="path118"></path>
                    </g>
                    <g id="g120" transform="translate(378.260813, 48.635003)" fill-rule="nonzero" fill="#231F20">
                        <path d="M4.7393365,14.2180095 L2.27251185,14.2180095 L2.27251185,15.7630332 L4.7393365,15.7630332 L4.7393365,17.0995261 C4.7393365,19.7156398 5.36492892,22.450237 10.1184834,22.450237 C11.3364929,22.450237 12.407583,22.2701422 13.1208531,22.1208531 L13.1208531,20.0710901 C12.4952607,20.3388626 11.6943128,20.7251185 10.4763033,20.7251185 C8.0379147,20.7251185 7.74170617,18.971564 7.74170617,17.457346 L7.74170617,15.7630332 L11.7535545,15.7630332 L11.7535545,14.2180095 L7.74170617,14.2180095 L7.74170617,1.61611375 L4.7393365,1.61611375" id="path122"></path>
                    </g>
                    <path d="M399.284513,70.191875 L402.52385,70.191875 L402.52385,67.191875 L399.284513,67.191875 L399.284513,70.191875 Z M393.549912,70.191875 L396.78925,70.191875 L396.78925,67.191875 L393.549912,67.191875 L393.549912,70.191875 Z M400.8011,53.6113 L400.74185,53.6113 C400.26555,52.5710125 398.92905,49.9241 395.8082,49.9241 C393.312937,49.9241 392.24185,52.0046625 392.24185,54.0568 L392.24185,64.398025 L395.244212,64.398025 L395.244212,55.542575 C395.244212,53.758225 395.509625,52.15395 397.026212,52.15395 C399.997775,52.15395 400.8319,56.789025 400.8319,58.542575 L400.8319,64.398025 L403.8319,64.398025 L403.8319,50.2511125 L400.801087,50.2511125 L400.8011,53.6113 Z" id="path124" fill="#231F20" fill-rule="nonzero"></path>
                    <g id="g126" transform="translate(407.962238, 50.180015)" fill-rule="nonzero" fill="#231F20">
                        <path d="M0,14.2180095 L3,14.2180095 L3,10.6208531 L3.05924171,10.6208531 C4.01184835,12.5236967 5.05213271,14.3364929 7.63744077,14.5450237 L7.63744077,11.4241706 C4.75355451,11.3341232 3,10.3530806 3,6.54976304 L3,0.0710900475 L0,0.0710900475" id="path128"></path>
                    </g>
                    <g id="g130" transform="translate(424.730009, 48.767704)" fill-rule="nonzero" fill="#231F20">
                        <path d="M11.8483413,18.957346 C11.1042654,19.3744076 8.99526068,20.3554503 6.76777252,20.3554503 C4.95260664,20.3554503 3.67535546,19.3151659 3.67535546,17.7701422 C3.67535546,13.4597157 13.3341232,13.5781991 13.3341232,7.16113745 C13.3341232,2.8507109 10.0047394,1.15639811 5.87440759,1.15639811 C3.55687204,1.15639811 1.2985782,1.69194313 0.675355451,1.93127962 L0.675355451,5.10900475 C1.59478673,4.57345972 3.97393366,3.29620854 6.3815166,3.29620854 C8.51895736,3.29620854 10.0663507,4.1872038 10.0663507,6.26777252 C10.0663507,10.964455 0.407582939,10.6682465 0.407582939,17.0568721 C0.407582939,20.3838863 2.87440759,22.3151659 7.12322276,22.3151659 C9.02606636,22.3151659 11.0450237,21.92891 11.8483413,21.7819906" id="path132"></path>
                    </g>
                    <g id="g134" transform="translate(438.888783, 48.803244)" fill-rule="nonzero" fill="#231F20">
                        <path d="M7.10900475,2.36966825 C9.7843602,2.36966825 10.1113744,5.93601897 10.1113744,8.52132703 C10.1113744,11.1066351 9.7843602,14.6729858 7.10900475,14.6729858 C4.46445498,14.6729858 4.13744076,11.1066351 4.13744076,8.52132703 C4.13744076,5.93601897 4.46445498,2.36966825 7.10900475,2.36966825 M0.867298579,8.52132703 C0.867298579,13.3056872 2.9478673,15.921801 7.10900475,15.921801 C11.2701422,15.921801 13.3791469,13.3056872 13.3791469,8.52132703 C13.3791469,3.73696683 11.2701422,1.12085308 7.10900475,1.12085308 C2.9478673,1.12085308 0.867298579,3.73696683 0.867298579,8.52132703" id="path136"></path>
                    </g>
                    <g id="g138" transform="translate(453.782150, 49.843532)" fill-rule="nonzero" fill="#231F20">
                        <polyline id="path140" points="0 2.36966825 7.01421802 12.7701422 0.445497631 12.7701422 0.445497631 14.5545024 10.1635071 14.5545024 10.1635071 12.7701422 3.15165877 2.36966825 10.3720379 2.36966825 10.3720379 0.407582939 2.1046882e-15 0.407582939"></polyline>
                    </g>
                    <path d="M466.827162,64.398025 L469.829538,64.398025 L469.829538,50.2511125 L466.827162,50.2511125 L466.827162,64.398025 Z M466.708663,70.75585 L469.948,70.75585 L469.948,67.7842875 L466.708663,67.7842875 L466.708663,70.75585 Z" id="path142" fill="#231F20" fill-rule="nonzero"></path>
                    <g id="g144" transform="translate(471.642339, 49.770070)" fill-rule="nonzero" fill="#231F20">
                        <path d="M9.478673,7.10900475 C8.22985783,7.01895736 4.8436019,6.75118484 4.8436019,4.13744076 C4.8436019,2.86018958 5.58530807,2.02606635 6.56635072,2.02606635 C7.60663508,2.02606635 9.478673,3.0379147 9.478673,5.44312797 L9.478673,7.10900475 Z M9.478673,2.44312797 L9.41943129,2.44312797 C8.94549764,1.61137441 7.69668248,0.154028436 5.43838863,0.154028436 C3.20853081,0.154028436 1.57345972,1.72985782 1.57345972,3.69194313 C1.57345972,8.05924172 7.60663508,8.26777252 9.478673,8.35781992 L9.478673,9.60426542 C9.478673,11.1516588 9.478673,13.7061612 7.48815167,13.7061612 C5.64691944,13.7061612 5.31753555,12.2796209 5.20142181,10.6161138 L2.04976304,10.6161138 C2.19905214,12.7251185 3.03080569,14.9549763 7.48815167,14.9549763 C12.0947867,14.9549763 12.4810427,12.3696683 12.4810427,9.60426542 L12.4810427,0.481042655 L9.478673,0.481042655 L9.478673,2.44312797 Z" id="path146"></path>
                    </g>
                    <polygon id="path148" fill="#231F20" fill-rule="nonzero" points="488.341388 50.253475 491.34375 50.253475 491.34375 70.75585 488.341388 70.75585"></polygon>
                    <g id="g150" transform="translate(494.670775, 50.180015)" fill-rule="nonzero" fill="#231F20">
                        <polyline id="path152" points="0 14.2180095 2.85308057 14.2180095 5.20142181 3.99526067 5.26066352 3.99526067 8.05450238 14.2180095 10.2227488 14.2180095 13.1658768 3.99526067 13.2251185 3.99526067 15.4241706 14.2180095 17.950237 14.2180095 14.6516588 0.0710900475 12.035545 0.0710900475 9.03554504 9.63981044 8.97630333 9.63981044 6.30094788 0.0710900475 3.68483413 0.0710900475"></polyline>
                    </g>
                    <path d="M515.917213,64.398025 L518.919588,64.398025 L518.919588,50.2511125 L515.917213,50.2511125 L515.917213,64.398025 Z M515.798712,70.75585 L519.038037,70.75585 L519.038037,67.7842875 L515.798712,67.7842875 L515.798712,70.75585 Z" id="path154" fill="#231F20" fill-rule="nonzero"></path>
                    <g id="g156" transform="translate(520.857977, 49.755846)" fill-rule="nonzero" fill="#231F20">
                        <path d="M9.478673,11.8483413 C8.46919433,12.5308057 7.33886257,13.2440758 5.91232228,13.2440758 C4.96208532,13.2440758 3.89099527,12.8293839 3.89099527,11.7582939 C3.89099527,9.20379148 10.3696683,8.96445499 10.3696683,4.44786731 C10.3696683,1.41706161 7.99289101,0.168246446 4.99052133,0.168246446 C3.17772512,0.168246446 1.93127962,0.554502371 1.21800948,0.793838864 L1.21800948,3.55687204 C2.07819906,2.96208531 3.47393365,2.07109005 5.13981043,2.07109005 C6.86255925,2.07109005 7.5758294,2.96208531 7.5758294,3.85545024 C7.5758294,6.35071091 1.18720379,6.85545025 1.18720379,10.8957346 C1.18720379,13.035545 2.61374408,14.9691943 6.14928911,14.9691943 C7.66587679,14.9691943 8.97393366,14.5521327 9.478673,14.4028436" id="path158"></path>
                    </g>
                    <g id="g160" transform="translate(532.625752, 49.755846)" fill-rule="nonzero" fill="#231F20">
                        <path d="M9.478673,11.8483413 C8.46919433,12.5308057 7.33886257,13.2440758 5.91232228,13.2440758 C4.96208532,13.2440758 3.89099527,12.8293839 3.89099527,11.7582939 C3.89099527,9.20379148 10.3696683,8.96445499 10.3696683,4.44786731 C10.3696683,1.41706161 7.99289101,0.168246446 4.99052133,0.168246446 C3.17772512,0.168246446 1.93127962,0.554502371 1.21800948,0.793838864 L1.21800948,3.55687204 C2.07819906,2.96208531 3.47393365,2.07109005 5.13981043,2.07109005 C6.86492892,2.07109005 7.5758294,2.96208531 7.5758294,3.85545024 C7.5758294,6.35071091 1.18720379,6.85545025 1.18720379,10.8957346 C1.18720379,13.035545 2.61374408,14.9691943 6.14928911,14.9691943 C7.66587679,14.9691943 8.97393366,14.5521327 9.478673,14.4028436" id="path162"></path>
                    </g>
                    <g id="g164" transform="translate(544.213427, 48.447796)" fill-rule="nonzero" fill="#231F20">
                        <path d="M9.478673,11.8483413 C9.478673,12.9478673 9.09478674,15.028436 6.86492892,15.028436 C4.54739337,15.028436 4.09952607,12.6516588 4.04265403,11.8483413 L9.478673,11.8483413 Z M12.1540285,2.27962086 C10.9052133,1.77488152 9.80568722,1.47630332 8.02369669,1.47630332 C4.09952607,1.47630332 0.950236968,3.79383887 0.950236968,9.50000001 C0.950236968,13.4241706 2.52606635,16.2772512 6.98341233,16.2772512 C11.5592417,16.2772512 12.421801,13.2156398 12.421801,10.4810427 L3.95260664,10.4810427 C3.95260664,7.6872038 5.20142181,3.05213271 9.45023698,3.05213271 C10.3720379,3.05213271 11.2630332,3.22985782 12.1540285,3.64691944 L12.1540285,2.27962086 Z" id="path166"></path>
                    </g>
                    <g id="g168" transform="translate(559.694462, 50.180015)" fill-rule="nonzero" fill="#231F20">
                        <path d="M0,14.2180095 L3.00236967,14.2180095 L3.00236967,10.8601896 L3.06161138,10.8601896 C3.53554503,11.900474 4.90284361,14.5450237 8.02369669,14.5450237 C10.5189574,14.5450237 11.5900474,12.464455 11.5900474,10.414692 L11.5900474,0.0710900475 L8.58767774,0.0710900475 L8.58767774,8.92890997 C8.58767774,10.7109005 8.31990523,12.3151659 6.80568721,12.3151659 C3.83412323,12.3151659 3.00236967,7.6800948 3.00236967,5.92654029 L3.00236967,0.0710900475 L0,0.0710900475" id="path170"></path>
                    </g>
                    <g id="g172" transform="translate(573.042802, 49.755846)" fill-rule="nonzero" fill="#231F20">
                        <path d="M9.478673,11.8483413 C8.46919433,12.5308057 7.33886257,13.2440758 5.91469195,13.2440758 C4.96208532,13.2440758 3.89336493,12.8293839 3.89336493,11.7582939 C3.89336493,9.20379148 10.3720379,8.96445499 10.3720379,4.44786731 C10.3720379,1.41706161 7.99289101,0.168246446 4.992891,0.168246446 C3.18009479,0.168246446 1.93127962,0.554502371 1.21800948,0.793838864 L1.21800948,3.55687204 C2.08056872,2.96208531 3.47630332,2.07109005 5.13981043,2.07109005 C6.86492892,2.07109005 7.57819906,2.96208531 7.57819906,3.85545024 C7.57819906,6.35071091 1.18957346,6.85545025 1.18957346,10.8957346 C1.18957346,13.035545 2.61611375,14.9691943 6.15165878,14.9691943 C7.66587679,14.9691943 8.97393366,14.5521327 9.478673,14.4028436" id="path174"></path>
                    </g>
                    <g id="g176" transform="translate(584.611534, 48.267694)" fill-rule="nonzero" fill="#231F20">
                        <path d="M11.8483413,2.36966825 C10.6303318,1.92417062 9.35071091,1.65639811 8.07345973,1.65639811 C3.58767773,1.65639811 0.971563983,4.36255925 0.971563983,9.6208531 C0.971563983,13.8412322 2.90284361,16.457346 6.97393366,16.457346 C10.7772512,16.457346 12.0568721,14.436019 12.0568721,11.5236967 L8.90521328,11.5236967 C8.90521328,13.2180095 8.72748816,15.2085308 6.85545025,15.2085308 C5.13033176,15.2085308 4.2393365,13.1872038 4.2393365,10.6327014 C4.2393365,7.18483413 5.69668247,3.23222749 9.3222749,3.23222749 C10.1824645,3.23222749 11.0165877,3.4407583 11.8483413,3.76777252" id="path178"></path>
                    </g>
                    <g id="g180" transform="translate(599.014375, 49.428836)" fill-rule="nonzero" fill="#231F20">
                        <path d="M0,21.3270142 L3.00236967,21.3270142 L3.00236967,11.6113744 L3.06161138,11.6113744 C3.53554503,12.6492891 4.90284361,15.2962086 8.02369669,15.2962086 C10.521327,15.2962086 11.5900474,13.2156398 11.5900474,11.1635071 L11.5900474,0.822274883 L8.58767774,0.822274883 L8.58767774,9.67772513 C8.58767774,11.4620853 8.32227489,13.0663507 6.80568721,13.0663507 C3.83412323,13.0663507 3.00236967,8.43127963 3.00236967,6.67772513 L3.00236967,0.822274883 L0,0.822274883" id="path182"></path>
                    </g>
                    <g id="g184" transform="translate(612.239490, 49.770070)" fill-rule="nonzero" fill="#231F20">
                        <path d="M9.478673,7.10900475 C8.22985783,7.01895736 4.84123223,6.75118484 4.84123223,4.13744076 C4.84123223,2.86018958 5.58530807,2.02606635 6.56635072,2.02606635 C7.60663508,2.02606635 9.478673,3.0379147 9.478673,5.44312797 L9.478673,7.10900475 Z M9.478673,2.44312797 L9.41706163,2.44312797 C8.94312798,1.61137441 7.69431281,0.154028436 5.43601897,0.154028436 C3.20853081,0.154028436 1.57345972,1.72985782 1.57345972,3.69194313 C1.57345972,8.05924172 7.60663508,8.26777252 9.478673,8.35781992 L9.478673,9.60426542 C9.478673,11.1516588 9.478673,13.7061612 7.485782,13.7061612 C5.64454977,13.7061612 5.31753555,12.2796209 5.19905214,10.6161138 L2.04739337,10.6161138 C2.19668247,12.7251185 3.02843602,14.9549763 7.485782,14.9549763 C12.0924171,14.9549763 12.478673,12.3696683 12.478673,9.60426542 L12.478673,0.481042655 L9.478673,0.481042655 L9.478673,2.44312797 Z" id="path186"></path>
                    </g>
                    <g id="g188" transform="translate(625.090201, 48.635003)" fill-rule="nonzero" fill="#231F20">
                        <path d="M4.7393365,14.2180095 L2.27251185,14.2180095 L2.27251185,15.7630332 L4.7393365,15.7630332 L4.7393365,17.0995261 C4.7393365,19.7156398 5.36255925,22.450237 10.1184834,22.450237 C11.3364929,22.450237 12.4052133,22.2701422 13.1184834,22.1208531 L13.1184834,20.0710901 C12.4952607,20.3388626 11.6919431,20.7251185 10.4739337,20.7251185 C8.0379147,20.7251185 7.74170617,18.971564 7.74170617,17.457346 L7.74170617,15.7630332 L11.7535545,15.7630332 L11.7535545,14.2180095 L7.74170617,14.2180095 L7.74170617,1.61611375 L4.7393365,1.61611375" id="path190"></path>
                    </g>
                    <g id="g192" transform="translate(637.021477, 47.762957)" fill-rule="nonzero" fill="#231F20">
                        <path d="M9.478673,2.36966825 C8.88388627,2.22037915 8.08056873,2.16113744 7.39810428,2.16113744 C4.57582939,2.16113744 2.9407583,3.02369669 2.9407583,5.75829385 L2.9407583,15.0900474 L0.682464456,15.0900474 L0.682464456,16.6350711 L2.9407583,16.6350711 L2.9407583,19.9620853 L5.94312797,21.7748815 L5.94312797,16.6350711 L9.80568722,16.6350711 L9.80568722,15.0900474 L5.94312797,15.0900474 L5.94312797,6.94549764 C5.94312797,4.86729859 6.14928911,3.85545024 8.08056873,3.85545024 C8.55687205,3.85545024 9.06161139,3.91469195 9.478673,4.09241707" id="path194"></path>
                    </g>
                    <g id="g196" transform="translate(647.244227, 48.447796)" fill-rule="nonzero" fill="#231F20">
                        <path d="M9.478673,11.8483413 C9.478673,12.9478673 9.09241708,15.028436 6.86255925,15.028436 C4.5450237,15.028436 4.09952607,12.6516588 4.04028437,11.8483413 L9.478673,11.8483413 Z M12.1516588,2.27962086 C10.9052133,1.77488152 9.80568722,1.47630332 8.02132703,1.47630332 C4.09952607,1.47630332 0.9478673,3.79383887 0.9478673,9.50000001 C0.9478673,13.4241706 2.52369669,16.2772512 6.98104266,16.2772512 C11.5568721,16.2772512 12.4194313,13.2156398 12.4194313,10.4810427 L3.95023697,10.4810427 C3.95023697,7.6872038 5.19905214,3.05213271 9.44786731,3.05213271 C10.3696683,3.05213271 11.2606635,3.22985782 12.1516588,3.64691944 L12.1516588,2.27962086 Z" id="path198"></path>
                    </g>
                    <g id="g200" transform="translate(1.038065, 1.168172)">
                        <g id="g202-Clipped">
                            <mask id="mask-4" fill="white">
                                <use xlink:href="#path-3"></use>
                            </mask>
                            <g id="path206"></g>
                            <g id="g202" mask="url(#mask-4)">
                                <g transform="translate(661.137442, 47.393365)" id="g208">
                                    <g transform="translate(0.549763, 1.618483)">
                                        <path d="M0,14.2180095 L3,14.2180095 L3,10.8601896 L3.05924171,10.8601896 C3.53554503,11.900474 4.90284361,14.5450237 8.02369669,14.5450237 C10.5189574,14.5450237 11.5900474,12.464455 11.5900474,10.414692 L11.5900474,0.0710900475 L8.58767774,0.0710900475 L8.58767774,8.92890997 C8.58767774,10.7109005 8.31990523,12.3151659 6.80568721,12.3151659 C3.83175356,12.3151659 3,7.6800948 3,5.92654029 L3,0.0710900475 L-5.2617205e-16,0.0710900475" id="path210" fill="#231F20" fill-rule="nonzero"></path>
                                    </g>
                                </g>
                            </g>
                        </g>
                    </g>
                </g>
            </g>
        </g>
    </g>
</svg>